<mxfile host="app.diagrams.net" modified="2020-10-07T23:35:50.368Z" agent="5.0 (Windows NT 10.0; Win64; x64) AppleWebKit/537.36 (KHTML, like Gecko) Chrome/85.0.4183.121 Safari/537.36" etag="kUisMiAUf_HcTBSVLFx_" version="13.7.8" type="github">
  <diagram id="C5RBs43oDa-KdzZeNtuy" name="Page-1">
    <mxGraphModel dx="672" dy="748" grid="1" gridSize="10" guides="1" tooltips="1" connect="1" arrows="1" fold="1" page="1" pageScale="1" pageWidth="827" pageHeight="1169" math="0" shadow="0">
      <root>
        <mxCell id="WIyWlLk6GJQsqaUBKTNV-0" />
        <mxCell id="WIyWlLk6GJQsqaUBKTNV-1" parent="WIyWlLk6GJQsqaUBKTNV-0" />
        <mxCell id="2ebZrkR-TWmBmjrGkh3x-0" value="" style="whiteSpace=wrap;html=1;aspect=fixed;" parent="WIyWlLk6GJQsqaUBKTNV-1" vertex="1">
          <mxGeometry x="45" y="40" width="350" height="350" as="geometry" />
        </mxCell>
        <mxCell id="2ebZrkR-TWmBmjrGkh3x-1" value="" style="rounded=0;whiteSpace=wrap;html=1;fillColor=#ffe6cc;strokeColor=#d79b00;" parent="WIyWlLk6GJQsqaUBKTNV-1" vertex="1">
          <mxGeometry x="60" y="70" width="220" height="60" as="geometry" />
        </mxCell>
        <mxCell id="2ebZrkR-TWmBmjrGkh3x-3" value="Nav Bar" style="text;html=1;resizable=0;autosize=1;align=center;verticalAlign=middle;points=[];fillColor=none;strokeColor=none;rounded=0;fontSize=26;" parent="WIyWlLk6GJQsqaUBKTNV-1" vertex="1">
          <mxGeometry x="70" y="80" width="110" height="40" as="geometry" />
        </mxCell>
        <mxCell id="2ebZrkR-TWmBmjrGkh3x-28" style="edgeStyle=orthogonalEdgeStyle;rounded=0;orthogonalLoop=1;jettySize=auto;html=1;exitX=1;exitY=1;exitDx=0;exitDy=0;entryX=0.5;entryY=0;entryDx=0;entryDy=0;fontSize=26;" parent="WIyWlLk6GJQsqaUBKTNV-1" source="2ebZrkR-TWmBmjrGkh3x-4" target="2ebZrkR-TWmBmjrGkh3x-23" edge="1">
          <mxGeometry relative="1" as="geometry" />
        </mxCell>
        <mxCell id="2ebZrkR-TWmBmjrGkh3x-4" value="" style="rhombus;whiteSpace=wrap;html=1;fontSize=26;fillColor=#f8cecc;strokeColor=#b85450;" parent="WIyWlLk6GJQsqaUBKTNV-1" vertex="1">
          <mxGeometry x="110" y="160" width="80" height="80" as="geometry" />
        </mxCell>
        <mxCell id="2ebZrkR-TWmBmjrGkh3x-26" style="edgeStyle=orthogonalEdgeStyle;rounded=0;orthogonalLoop=1;jettySize=auto;html=1;exitX=1;exitY=0;exitDx=0;exitDy=0;entryX=0.09;entryY=0.208;entryDx=0;entryDy=0;entryPerimeter=0;fontSize=26;" parent="WIyWlLk6GJQsqaUBKTNV-1" source="2ebZrkR-TWmBmjrGkh3x-5" target="2ebZrkR-TWmBmjrGkh3x-23" edge="1">
          <mxGeometry relative="1" as="geometry" />
        </mxCell>
        <mxCell id="2ebZrkR-TWmBmjrGkh3x-5" value="" style="rhombus;whiteSpace=wrap;html=1;fontSize=26;fillColor=#f8cecc;strokeColor=#b85450;" parent="WIyWlLk6GJQsqaUBKTNV-1" vertex="1">
          <mxGeometry x="230" y="160" width="80" height="80" as="geometry" />
        </mxCell>
        <mxCell id="2ebZrkR-TWmBmjrGkh3x-27" style="edgeStyle=orthogonalEdgeStyle;rounded=0;orthogonalLoop=1;jettySize=auto;html=1;exitX=1;exitY=1;exitDx=0;exitDy=0;entryX=0.33;entryY=1.008;entryDx=0;entryDy=0;entryPerimeter=0;fontSize=26;" parent="WIyWlLk6GJQsqaUBKTNV-1" source="2ebZrkR-TWmBmjrGkh3x-6" target="2ebZrkR-TWmBmjrGkh3x-23" edge="1">
          <mxGeometry relative="1" as="geometry" />
        </mxCell>
        <mxCell id="2ebZrkR-TWmBmjrGkh3x-6" value="" style="rhombus;whiteSpace=wrap;html=1;fontSize=26;fillColor=#f8cecc;strokeColor=#b85450;" parent="WIyWlLk6GJQsqaUBKTNV-1" vertex="1">
          <mxGeometry x="110" y="260" width="80" height="80" as="geometry" />
        </mxCell>
        <mxCell id="2ebZrkR-TWmBmjrGkh3x-30" style="edgeStyle=orthogonalEdgeStyle;rounded=0;orthogonalLoop=1;jettySize=auto;html=1;exitX=1;exitY=1;exitDx=0;exitDy=0;entryX=0.1;entryY=0.833;entryDx=0;entryDy=0;entryPerimeter=0;fontSize=26;" parent="WIyWlLk6GJQsqaUBKTNV-1" source="2ebZrkR-TWmBmjrGkh3x-7" target="2ebZrkR-TWmBmjrGkh3x-23" edge="1">
          <mxGeometry relative="1" as="geometry" />
        </mxCell>
        <mxCell id="2ebZrkR-TWmBmjrGkh3x-7" value="" style="rhombus;whiteSpace=wrap;html=1;fontSize=26;fillColor=#f8cecc;strokeColor=#b85450;" parent="WIyWlLk6GJQsqaUBKTNV-1" vertex="1">
          <mxGeometry x="230" y="260" width="80" height="80" as="geometry" />
        </mxCell>
        <mxCell id="2ebZrkR-TWmBmjrGkh3x-8" value="CATEGORY -1&lt;br&gt;(favorite)" style="text;html=1;resizable=0;autosize=1;align=center;verticalAlign=middle;points=[];fillColor=none;strokeColor=none;rounded=0;fontSize=10;" parent="WIyWlLk6GJQsqaUBKTNV-1" vertex="1">
          <mxGeometry x="110" y="185" width="80" height="30" as="geometry" />
        </mxCell>
        <mxCell id="2ebZrkR-TWmBmjrGkh3x-9" value="CATEGORY - 2&lt;br&gt;(Recipe for noobs)" style="text;html=1;resizable=0;autosize=1;align=center;verticalAlign=middle;points=[];fillColor=none;strokeColor=none;rounded=0;fontSize=10;" parent="WIyWlLk6GJQsqaUBKTNV-1" vertex="1">
          <mxGeometry x="220" y="185" width="100" height="30" as="geometry" />
        </mxCell>
        <mxCell id="2ebZrkR-TWmBmjrGkh3x-10" value="CATEGORY - 3" style="text;html=1;resizable=0;autosize=1;align=center;verticalAlign=middle;points=[];fillColor=none;strokeColor=none;rounded=0;fontSize=10;" parent="WIyWlLk6GJQsqaUBKTNV-1" vertex="1">
          <mxGeometry x="110" y="290" width="80" height="20" as="geometry" />
        </mxCell>
        <mxCell id="2ebZrkR-TWmBmjrGkh3x-11" value="CATEGORY - 4" style="text;html=1;resizable=0;autosize=1;align=center;verticalAlign=middle;points=[];fillColor=none;strokeColor=none;rounded=0;fontSize=10;" parent="WIyWlLk6GJQsqaUBKTNV-1" vertex="1">
          <mxGeometry x="230" y="290" width="80" height="20" as="geometry" />
        </mxCell>
        <mxCell id="2ebZrkR-TWmBmjrGkh3x-12" value="" style="rounded=0;whiteSpace=wrap;html=1;fontSize=10;" parent="WIyWlLk6GJQsqaUBKTNV-1" vertex="1">
          <mxGeometry x="37.5" y="420" width="355" height="400" as="geometry" />
        </mxCell>
        <mxCell id="2ebZrkR-TWmBmjrGkh3x-13" value="" style="rounded=0;whiteSpace=wrap;html=1;fontSize=10;fillColor=#f5f5f5;strokeColor=#666666;fontColor=#333333;" parent="WIyWlLk6GJQsqaUBKTNV-1" vertex="1">
          <mxGeometry x="80" y="460" width="280" height="60" as="geometry" />
        </mxCell>
        <mxCell id="2ebZrkR-TWmBmjrGkh3x-14" value="&lt;font style=&quot;font-size: 29px&quot;&gt;SingleRecipe&lt;/font&gt;" style="text;html=1;resizable=0;autosize=1;align=center;verticalAlign=middle;points=[];fillColor=none;strokeColor=none;rounded=0;fontSize=10;" parent="WIyWlLk6GJQsqaUBKTNV-1" vertex="1">
          <mxGeometry x="120" y="480" width="190" height="20" as="geometry" />
        </mxCell>
        <mxCell id="2ebZrkR-TWmBmjrGkh3x-15" value="" style="rounded=0;whiteSpace=wrap;html=1;fontSize=10;fillColor=#d5e8d4;strokeColor=#82b366;" parent="WIyWlLk6GJQsqaUBKTNV-1" vertex="1">
          <mxGeometry x="80" y="550" width="120" height="60" as="geometry" />
        </mxCell>
        <mxCell id="2ebZrkR-TWmBmjrGkh3x-16" value="Steps" style="text;html=1;resizable=0;autosize=1;align=center;verticalAlign=middle;points=[];fillColor=#d5e8d4;strokeColor=#82b366;rounded=0;fontSize=26;" parent="WIyWlLk6GJQsqaUBKTNV-1" vertex="1">
          <mxGeometry x="100" y="560" width="80" height="40" as="geometry" />
        </mxCell>
        <mxCell id="2ebZrkR-TWmBmjrGkh3x-20" value="" style="ellipse;whiteSpace=wrap;html=1;fontSize=26;fillColor=#ffe6cc;strokeColor=#d79b00;" parent="WIyWlLk6GJQsqaUBKTNV-1" vertex="1">
          <mxGeometry x="480" y="564" width="240" height="146" as="geometry" />
        </mxCell>
        <mxCell id="2ebZrkR-TWmBmjrGkh3x-21" value="Database" style="text;html=1;resizable=0;autosize=1;align=center;verticalAlign=middle;points=[];fillColor=none;strokeColor=none;rounded=0;fontSize=26;" parent="WIyWlLk6GJQsqaUBKTNV-1" vertex="1">
          <mxGeometry x="530" y="617" width="130" height="40" as="geometry" />
        </mxCell>
        <mxCell id="2ebZrkR-TWmBmjrGkh3x-23" value="" style="ellipse;whiteSpace=wrap;html=1;fontSize=26;fillColor=#f5f5f5;strokeColor=#666666;fontColor=#333333;" parent="WIyWlLk6GJQsqaUBKTNV-1" vertex="1">
          <mxGeometry x="480" y="200" width="200" height="120" as="geometry" />
        </mxCell>
        <mxCell id="2ebZrkR-TWmBmjrGkh3x-24" value="Backend Server" style="text;html=1;resizable=0;autosize=1;align=center;verticalAlign=middle;points=[];fillColor=#f8cecc;strokeColor=#b85450;rounded=0;fontSize=26;" parent="WIyWlLk6GJQsqaUBKTNV-1" vertex="1">
          <mxGeometry x="480" y="240" width="200" height="40" as="geometry" />
        </mxCell>
        <mxCell id="2ebZrkR-TWmBmjrGkh3x-39" style="edgeStyle=orthogonalEdgeStyle;rounded=0;orthogonalLoop=1;jettySize=auto;html=1;exitX=1;exitY=0.5;exitDx=0;exitDy=0;fontSize=26;" parent="WIyWlLk6GJQsqaUBKTNV-1" source="2ebZrkR-TWmBmjrGkh3x-31" edge="1">
          <mxGeometry relative="1" as="geometry">
            <mxPoint x="600" y="720" as="targetPoint" />
          </mxGeometry>
        </mxCell>
        <mxCell id="2ebZrkR-TWmBmjrGkh3x-31" value="" style="rounded=0;whiteSpace=wrap;html=1;fontSize=26;" parent="WIyWlLk6GJQsqaUBKTNV-1" vertex="1">
          <mxGeometry x="37.5" y="840" width="332.5" height="380" as="geometry" />
        </mxCell>
        <mxCell id="2ebZrkR-TWmBmjrGkh3x-32" value="" style="rounded=0;whiteSpace=wrap;html=1;fontSize=26;fillColor=#dae8fc;strokeColor=#6c8ebf;" parent="WIyWlLk6GJQsqaUBKTNV-1" vertex="1">
          <mxGeometry x="80" y="860" width="250" height="60" as="geometry" />
        </mxCell>
        <mxCell id="2ebZrkR-TWmBmjrGkh3x-34" value="Subscription" style="text;html=1;strokeColor=none;fillColor=none;align=center;verticalAlign=middle;whiteSpace=wrap;rounded=0;fontSize=26;" parent="WIyWlLk6GJQsqaUBKTNV-1" vertex="1">
          <mxGeometry x="180" y="880" width="40" height="20" as="geometry" />
        </mxCell>
        <mxCell id="2ebZrkR-TWmBmjrGkh3x-36" value="" style="rounded=1;whiteSpace=wrap;html=1;fontSize=26;fillColor=#ffe6cc;strokeColor=#d79b00;" parent="WIyWlLk6GJQsqaUBKTNV-1" vertex="1">
          <mxGeometry x="85" y="940" width="70" height="150" as="geometry" />
        </mxCell>
        <mxCell id="2ebZrkR-TWmBmjrGkh3x-37" value="" style="rounded=1;whiteSpace=wrap;html=1;fontSize=26;fillColor=#ffe6cc;strokeColor=#d79b00;" parent="WIyWlLk6GJQsqaUBKTNV-1" vertex="1">
          <mxGeometry x="168.75" y="940" width="70" height="150" as="geometry" />
        </mxCell>
        <mxCell id="2ebZrkR-TWmBmjrGkh3x-38" value="" style="rounded=1;whiteSpace=wrap;html=1;fontSize=26;fillColor=#ffe6cc;strokeColor=#d79b00;" parent="WIyWlLk6GJQsqaUBKTNV-1" vertex="1">
          <mxGeometry x="255" y="940" width="70" height="150" as="geometry" />
        </mxCell>
        <mxCell id="2ebZrkR-TWmBmjrGkh3x-40" value="" style="ellipse;whiteSpace=wrap;html=1;fontSize=26;fillColor=#fff2cc;strokeColor=#d6b656;" parent="WIyWlLk6GJQsqaUBKTNV-1" vertex="1">
          <mxGeometry x="230" y="540" width="120" height="80" as="geometry" />
        </mxCell>
        <mxCell id="2ebZrkR-TWmBmjrGkh3x-41" value="Reviews&lt;br&gt;" style="text;html=1;strokeColor=none;fillColor=none;align=center;verticalAlign=middle;whiteSpace=wrap;rounded=0;fontSize=26;" parent="WIyWlLk6GJQsqaUBKTNV-1" vertex="1">
          <mxGeometry x="270" y="570" width="40" height="20" as="geometry" />
        </mxCell>
        <mxCell id="2ebZrkR-TWmBmjrGkh3x-42" value="" style="ellipse;whiteSpace=wrap;html=1;aspect=fixed;fontSize=26;fillColor=#e1d5e7;strokeColor=#9673a6;" parent="WIyWlLk6GJQsqaUBKTNV-1" vertex="1">
          <mxGeometry x="300" y="60" width="80" height="80" as="geometry" />
        </mxCell>
        <mxCell id="2ebZrkR-TWmBmjrGkh3x-43" value="API&lt;br&gt;(&lt;font style=&quot;font-size: 14px&quot;&gt;Weather&lt;/font&gt;)" style="text;html=1;strokeColor=none;fillColor=none;align=center;verticalAlign=middle;whiteSpace=wrap;rounded=0;fontSize=26;" parent="WIyWlLk6GJQsqaUBKTNV-1" vertex="1">
          <mxGeometry x="320" y="90" width="40" height="20" as="geometry" />
        </mxCell>
        <mxCell id="2ebZrkR-TWmBmjrGkh3x-50" style="edgeStyle=orthogonalEdgeStyle;rounded=0;orthogonalLoop=1;jettySize=auto;html=1;exitX=1;exitY=1;exitDx=0;exitDy=0;fontSize=19;entryX=0;entryY=0.75;entryDx=0;entryDy=0;" parent="WIyWlLk6GJQsqaUBKTNV-1" source="2ebZrkR-TWmBmjrGkh3x-48" target="2ebZrkR-TWmBmjrGkh3x-52" edge="1">
          <mxGeometry relative="1" as="geometry">
            <mxPoint x="540" y="410" as="targetPoint" />
            <Array as="points">
              <mxPoint x="248" y="370" />
              <mxPoint x="540" y="370" />
              <mxPoint x="540" y="353" />
            </Array>
          </mxGeometry>
        </mxCell>
        <mxCell id="2ebZrkR-TWmBmjrGkh3x-48" value="" style="ellipse;whiteSpace=wrap;html=1;fontSize=26;" parent="WIyWlLk6GJQsqaUBKTNV-1" vertex="1">
          <mxGeometry x="162.5" y="330" width="100" height="60" as="geometry" />
        </mxCell>
        <mxCell id="2ebZrkR-TWmBmjrGkh3x-49" value="Random?" style="text;html=1;strokeColor=none;fillColor=none;align=center;verticalAlign=middle;whiteSpace=wrap;rounded=0;fontSize=19;" parent="WIyWlLk6GJQsqaUBKTNV-1" vertex="1">
          <mxGeometry x="190" y="350" width="40" height="20" as="geometry" />
        </mxCell>
        <mxCell id="2ebZrkR-TWmBmjrGkh3x-52" value="" style="whiteSpace=wrap;html=1;aspect=fixed;fontSize=19;" parent="WIyWlLk6GJQsqaUBKTNV-1" vertex="1">
          <mxGeometry x="690" y="290" width="110" height="110" as="geometry" />
        </mxCell>
        <mxCell id="2ebZrkR-TWmBmjrGkh3x-53" value="- API ?&lt;br&gt;- BE ?" style="text;html=1;strokeColor=none;fillColor=none;align=center;verticalAlign=middle;whiteSpace=wrap;rounded=0;fontSize=19;" parent="WIyWlLk6GJQsqaUBKTNV-1" vertex="1">
          <mxGeometry x="700" y="280" width="90" height="90" as="geometry" />
        </mxCell>
        <mxCell id="_dIIu0VExmhFTLS-VKew-0" value="&lt;font style=&quot;font-size: 20px&quot;&gt;Search&lt;/font&gt;" style="text;html=1;strokeColor=none;fillColor=none;align=center;verticalAlign=middle;whiteSpace=wrap;rounded=0;strokeWidth=3;" parent="WIyWlLk6GJQsqaUBKTNV-1" vertex="1">
          <mxGeometry x="190" y="85" width="80" height="30" as="geometry" />
        </mxCell>
      </root>
    </mxGraphModel>
  </diagram>
</mxfile>
